<svg id="Ball" xmlns="http://www.w3.org/2000/svg" viewBox="0 0 451.5 451.5">
  <title>ball-compound-shape</title>
  <g>
    <path d="M225.75,451.5A225.75,225.75,0,0,1,66.12,66.12,225.75,225.75,0,0,1,385.38,385.38,224.28,224.28,0,0,1,225.75,451.5Zm0-438.5C108.44,13,13,108.44,13,225.75S108.44,438.5,225.75,438.5,438.5,343.06,438.5,225.75,343.06,13,225.75,13Z"/>
    <path d="M225,17.45c-114.5,0-207.32,92.82-207.32,207.32S110.49,432.08,225,432.08s207.32-92.82,207.32-207.32S339.49,17.45,225,17.45Zm34.62,196.67a153.53,153.53,0,0,1,25.32-73.53,97.58,97.58,0,0,1,34.23,51.55,169.93,169.93,0,0,1-60,33.75Q259.15,220,259.61,214.12ZM225,120a97,97,0,0,1,55.9,17.61,158.51,158.51,0,0,0-26.27,76.12c-.36,4.56-.51,9.11-.48,13.64a158.1,158.1,0,0,1-24.55,4.81L224.41,120Zm29.26,112.53a157.78,157.78,0,0,0,19.15,69.62,96.89,96.89,0,0,1-40,12.49l-3.59-77.45A163,163,0,0,0,254.26,232.53ZM193.42,232a158.2,158.2,0,0,0-31.5-88.81,97.07,97.07,0,0,1,57.49-23l5.21,112.51-.88.08A147.13,147.13,0,0,1,193.42,232Zm-35.25-85.47a153.21,153.21,0,0,1,30.21,84.72,130.11,130.11,0,0,1-60-26.61A97.26,97.26,0,0,1,158.17,146.51Zm-30.42,64a135.3,135.3,0,0,0,60.78,25.83,153.7,153.7,0,0,1-13.26,65A97.45,97.45,0,0,1,127.5,217.5C127.5,215.15,127.59,212.81,127.75,210.5Zm51.9,93.33A158.62,158.62,0,0,0,193.55,237a149.71,149.71,0,0,0,18.6,1.16q5.93,0,12-.46l.73-.06,3.58,77.26c-1.14,0-2.28.07-3.43.07A97.07,97.07,0,0,1,179.65,303.83Zm98-4.28a152.86,152.86,0,0,1-18.47-68.45,174.43,174.43,0,0,0,61.25-33.49,97.65,97.65,0,0,1-42.78,101.94Z"/>
  </g>
</svg>
