<svg id="Boxing" xmlns="http://www.w3.org/2000/svg" viewBox="0 0 451.4 451.5">
  <title>boxing2</title>
  <g>
    <rect x="328.52" y="295.06" width="31.8" height="1" transform="translate(-208.12 191.41) rotate(-27.37)" fill="#020000"/>
    <path d="M336.7,18.4c-114.5,0-207.3,92.8-207.3,207.3S222.2,433,336.7,433,544,340.2,544,225.7,451.2,18.4,336.7,18.4Zm71.6,220c-25.5,63.2-14,96.6-68.2,96-51.1-.5-49.9-47.6-55.5-78.8-11.6-4.4-23.6-16-31.6-31.9-12.6-25.1-10.5-51.7,4.8-59.3a21.14,21.14,0,0,1,5.9-1.8c9.8,1.5,16.9,10.4,21.9,18.3a26.9,26.9,0,0,1,2.4,4.8c4.8,9.5,2.9,20.3,6.3,30.4a2.65,2.65,0,0,0,1.9,1.8c2,.3,4.2-1.2,3.4-3.6-2.2-6.5-2-13.4-3-20.1a28.68,28.68,0,0,0-.5-3.1,41.6,41.6,0,0,0-5.6-12.3,50.83,50.83,0,0,0-11.2-12.4,4.16,4.16,0,0,0-1.5-3.4,44.56,44.56,0,0,0-7.7-5.4c9.7-21.5,32.3-36.5,70.2-37.1,78.3-1.3,91,60.8,68,117.9Z" transform="translate(-110.8)"/>
    <path d="M336.5,451.5A225.71,225.71,0,0,1,176.9,66.2,225.65,225.65,0,0,1,562.2,225.7,225.85,225.85,0,0,1,336.5,451.5Zm0-438.5c-117.3,0-212.8,95.4-212.8,212.8s95.4,212.8,212.8,212.8,212.7-95.4,212.7-212.8S453.8,13,336.5,13Z" transform="translate(-110.8)"/>
    <rect x="343.84" y="279.73" width="1" height="31.8" transform="translate(-168.56 506.05) rotate(-68.27)" fill="#020000"/>
    <rect x="328.52" y="266.06" width="31.8" height="1" transform="translate(-194.79 188.16) rotate(-27.37)" fill="#020000"/>
    <rect x="343.84" y="250.73" width="1" height="31.8" transform="translate(-141.62 487.79) rotate(-68.27)" fill="#020000"/>
  </g>
</svg>
