<svg id="Disco" xmlns="http://www.w3.org/2000/svg" viewBox="0 0 519 519">
  <title>disco3</title>
  <g>
    <path d="M510,28.7C378.4,28.7,271.7,135.4,271.7,267S378.4,505.3,510,505.3,748.3,398.6,748.3,267,641.6,28.7,510,28.7Zm3.1,350.2c-56-.6-101.4-45.4-101.4-101.4a101.27,101.27,0,0,1,98.6-101.3l-.8-74.4,5.7-.1.8,74.5a101.52,101.52,0,0,1,98.5,101.3C614.6,333.5,559.1,379.3,513.1,378.9Z" transform="translate(-252 -8)"/>
    <rect x="616.07" y="208.69" width="48.5" height="5.7" transform="matrix(0.83, -0.56, 0.56, 0.83, -260.09, 388.82)" fill="#fff"/>
    <rect x="653.74" y="250.63" width="5.7" height="48.4" transform="translate(127.78 922.58) rotate(-89.83)" fill="#fff"/>
    <rect x="643.59" y="321.46" width="5.7" height="48.5" transform="translate(-250.55 686.13) rotate(-56.51)" fill="#fff"/>
    <rect x="383.28" y="187.73" width="5.7" height="48.5" transform="translate(-255.7 409.07) rotate(-56.51)" fill="#fff"/>
    <rect x="100.2" y="266.3" width="48.4" height="5.7" fill="#fff"/>
    <rect x="363.05" y="347.4" width="48.5" height="5.7" transform="translate(-381.93 270.48) rotate(-34.22)" fill="#fff"/>
    <rect x="173.2" y="214.8" width="176.3" height="5.7"/>
    <rect x="165" y="291" width="214.8" height="5.7"/>
    <path d="M511.5,527A259.51,259.51,0,0,1,328,84,259.51,259.51,0,0,1,695,451,257.87,257.87,0,0,1,511.5,527Zm0-504.1c-134.8,0-244.6,109.7-244.6,244.6S376.6,512.1,511.5,512.1,756.1,402.4,756.1,267.5,646.3,22.9,511.5,22.9Z" transform="translate(-252 -8)"/>
    <path d="M493.8,386.7c-28.3-34.4-44.5-75.2-45.7-114.8-1.2-40.5,13.5-75.5,41.6-98.6l3.6,4.4c-26.6,21.9-40.7,55.3-39.5,93.9,1.2,38.3,17,77.9,44.4,111.3Z" transform="translate(-252 -8)"/>
    <path d="M529,392.5l-3.6-4.4c59.4-48.8,63.5-142.3,9.2-208.5L539,176C595.4,244.6,590.9,341.7,529,392.5Z" transform="translate(-252 -8)"/>
  </g>
</svg>
