<svg xmlns="http://www.w3.org/2000/svg">


  	<symbol id="Ball" viewBox="0 0 451.5 451.5">
  <title>ball-compound-shape</title>
  <g>
  	
    <path d="M225.75,451.5A225.75,225.75,0,0,1,66.12,66.12,225.75,225.75,0,0,1,385.38,385.38,224.28,224.28,0,0,1,225.75,451.5Zm0-438.5C108.44,13,13,108.44,13,225.75S108.44,438.5,225.75,438.5,438.5,343.06,438.5,225.75,343.06,13,225.75,13Z"/>
    <path d="M225,17.45c-114.5,0-207.32,92.82-207.32,207.32S110.49,432.08,225,432.08s207.32-92.82,207.32-207.32S339.49,17.45,225,17.45Zm34.62,196.67a153.53,153.53,0,0,1,25.32-73.53,97.58,97.58,0,0,1,34.23,51.55,169.93,169.93,0,0,1-60,33.75Q259.15,220,259.61,214.12ZM225,120a97,97,0,0,1,55.9,17.61,158.51,158.51,0,0,0-26.27,76.12c-.36,4.56-.51,9.11-.48,13.64a158.1,158.1,0,0,1-24.55,4.81L224.41,120Zm29.26,112.53a157.78,157.78,0,0,0,19.15,69.62,96.89,96.89,0,0,1-40,12.49l-3.59-77.45A163,163,0,0,0,254.26,232.53ZM193.42,232a158.2,158.2,0,0,0-31.5-88.81,97.07,97.07,0,0,1,57.49-23l5.21,112.51-.88.08A147.13,147.13,0,0,1,193.42,232Zm-35.25-85.47a153.21,153.21,0,0,1,30.21,84.72,130.11,130.11,0,0,1-60-26.61A97.26,97.26,0,0,1,158.17,146.51Zm-30.42,64a135.3,135.3,0,0,0,60.78,25.83,153.7,153.7,0,0,1-13.26,65A97.45,97.45,0,0,1,127.5,217.5C127.5,215.15,127.59,212.81,127.75,210.5Zm51.9,93.33A158.62,158.62,0,0,0,193.55,237a149.71,149.71,0,0,0,18.6,1.16q5.93,0,12-.46l.73-.06,3.58,77.26c-1.14,0-2.28.07-3.43.07A97.07,97.07,0,0,1,179.65,303.83Zm98-4.28a152.86,152.86,0,0,1-18.47-68.45,174.43,174.43,0,0,0,61.25-33.49,97.65,97.65,0,0,1-42.78,101.94Z"/>
  </g>

	</symbol>

	<symbol id="Bottle" viewBox="0 0 451.5 451.5">
  <title>water</title>
  <g>
    <path d="M285.75,477A225.75,225.75,0,0,1,126.12,91.62,225.75,225.75,0,0,1,445.38,410.88,224.28,224.28,0,0,1,285.75,477Zm0-438.5C168.44,38.5,73,133.94,73,251.25S168.44,464,285.75,464,498.5,368.56,498.5,251.25,403.06,38.5,285.75,38.5Z" transform="translate(-60 -25.5)"/>
    <path d="M285.07,44.95c-114.5,0-207.32,92.82-207.32,207.32s92.82,207.32,207.32,207.32,207.32-92.82,207.32-207.32S399.57,44.95,285.07,44.95Zm14.8,78.31a5.37,5.37,0,0,1,10,3.83,10.32,10.32,0,0,1-7.72,6.55S298.71,126.31,299.87,123.25Zm-6,29.45v21.36H280.74V152.7Zm-14.53-25.93a4,4,0,0,1,4.6,3.39,7.94,7.94,0,0,1-2.86,7.25s-5-3.7-5.34-6.2A4,4,0,0,1,279.37,126.77Zm8.88,52.17c21.63,0,39.16,22.58,39.16,50.42H249.09C249.09,201.52,266.62,178.94,288.25,178.94Zm-39.66,59.87h78.83v72.6H248.59ZM329.41,368.5a12,12,0,0,1-12,12H259.29a12,12,0,0,1-12-12V335.23a12,12,0,0,1,12-12h58.12a12,12,0,0,1,12,12Z" transform="translate(-60 -25.5)" fill-rule="evenodd"/>
  </g>
	</symbol>

	<symbol id="Shoe" viewBox="0 0 451.5 451.5">
  <title>shoe</title>
  <g>
    <path d="M471.07,44.93c-114.5,0-207.32,92.82-207.32,207.32s92.82,207.32,207.32,207.32,207.32-92.82,207.32-207.32S585.57,44.93,471.07,44.93ZM325.57,201.78c2.51,8.13,100.4,38.72,127.7-13.62.1-.17.61-.2,1.46-.12l.25,0a3,3,0,0,0,.62.09l.3.07h-.05l.24,0a2.43,2.43,0,0,0,.4.07c25.27,4.42,189.46,56.92,176.12,89H332.38a6.83,6.83,0,0,1-6.81-6.81Zm297.32,112H337a12,12,0,0,1-12-12v-1a12,12,0,0,1,12-12H622.89a12,12,0,0,1,12,12v1A12,12,0,0,1,622.89,313.74Z" transform="translate(-246 -25.5)" fill-rule="evenodd"/>
    <path d="M471.75,477A225.75,225.75,0,0,1,312.12,91.62,225.75,225.75,0,0,1,631.38,410.88,224.28,224.28,0,0,1,471.75,477Zm0-438.5C354.44,38.5,259,133.94,259,251.25S354.44,464,471.75,464,684.5,368.56,684.5,251.25,589.06,38.5,471.75,38.5Z" transform="translate(-246 -25.5)"/>
    <rect x="448.56" y="234.75" width="88.39" height="14" transform="translate(-202.16 532.05) rotate(-61.26)"/>
    <rect x="516.56" y="236.75" width="88.39" height="14" transform="translate(-168.61 592.71) rotate(-61.26)"/>
    <rect x="482.56" y="236.75" width="88.39" height="14" transform="translate(-186.26 562.9) rotate(-61.26)"/>
  </g>
</symbol>

	<symbol id="Disco" viewBox="0 0 519 519">
  <title>disco</title>
  <g>
    <path d="M510,28.68C378.36,28.68,271.67,135.38,271.67,267S378.36,505.3,510,505.3,748.28,398.61,748.28,267,641.59,28.68,510,28.68Zm3.17,350.19c-56-.57-101.39-45.39-101.39-101.39a101.39,101.39,0,0,1,98.57-101.35l-.77-74.4,5.75-.09.77,74.49a101.4,101.4,0,0,1,98.46,101.35C614.55,333.48,559.06,379.35,513.14,378.88Z" transform="translate(-252 -8)" fill-rule="evenodd"/>
    <rect x="616.06" y="208.73" width="48.46" height="5.75" transform="translate(-260.12 388.83) rotate(-34.23)" fill="#fff"/>
    <rect x="653.76" y="250.64" width="5.75" height="48.41" transform="translate(127.8 922.64) rotate(-89.83)" fill="#fff"/>
    <rect x="643.55" y="321.48" width="5.75" height="48.46" transform="translate(-250.56 686.1) rotate(-56.51)" fill="#fff"/>
    <rect x="383.31" y="187.73" width="5.75" height="48.46" transform="matrix(0.55, -0.83, 0.83, 0.55, -255.67, 409.1)" fill="#fff"/>
    <rect x="100.22" y="266.32" width="48.4" height="5.75" fill="#fff"/>
    <rect x="363.12" y="347.41" width="48.46" height="5.75" transform="translate(-381.94 270.51) rotate(-34.22)" fill="#fff"/>
    <rect x="173.17" y="214.83" width="176.28" height="5.75"/>
    <rect x="164.95" y="291.05" width="214.8" height="5.75"/>
    <path d="M511.5,527A259.5,259.5,0,0,1,328,84,259.5,259.5,0,0,1,695,451,257.81,257.81,0,0,1,511.5,527Zm0-504.06c-134.85,0-244.56,109.71-244.56,244.56S376.65,512.06,511.5,512.06,756.06,402.35,756.06,267.5,646.35,22.94,511.5,22.94Z" transform="translate(-252 -8)"/>
    <path d="M493.84,386.69c-28.27-34.41-44.51-75.17-45.73-114.77-1.25-40.51,13.52-75.51,41.57-98.55l3.65,4.44c-26.65,21.89-40.67,55.25-39.48,93.94,1.18,38.33,17,77.86,44.43,111.3Z" transform="translate(-252 -8)"/>
    <path d="M529,392.54l-3.65-4.44c59.42-48.78,63.54-142.33,9.19-208.54l4.44-3.65C595.39,244.57,590.92,341.75,529,392.54Z" transform="translate(-252 -8)"/>
  </g>
</symbol>

	<symbol id="Boxing"  viewBox="0 0 451.5 451.5">
  <title>boxing</title>
  <g>
    <rect x="328.47" y="295.07" width="31.75" height="1" transform="translate(-208.05 191.37) rotate(-27.37)" fill="#020000"/>
    <path d="M336.72,18.4c-114.5,0-207.32,92.82-207.32,207.32S222.25,433,336.72,433,544,340.21,544,225.71,451.24,18.4,336.72,18.4Zm71.53,220c-25.48,63.17-14,96.6-68.24,96-51.13-.53-49.9-47.56-55.5-78.77-11.61-4.38-23.62-16-31.62-31.91-12.59-25.15-10.45-51.69,4.79-59.27a19.32,19.32,0,0,1,5.91-1.82c9.79,1.5,16.88,10.39,21.88,18.26a28.06,28.06,0,0,1,2.4,4.76c4.81,9.54,2.94,20.34,6.31,30.42a2.7,2.7,0,0,0,1.86,1.81c2,.26,4.17-1.23,3.37-3.64-2.19-6.53-2-13.36-3-20.11-.14-1.06-.34-2.1-.55-3.12a40,40,0,0,0-5.65-12.31A51.58,51.58,0,0,0,279,166.26a4.22,4.22,0,0,0-1.45-3.36,48.18,48.18,0,0,0-7.7-5.41C279.56,136,302.17,121,340,120.42c78.62-1.18,91.34,60.9,68.29,118.06Z" transform="translate(-110.72 0.02)"/>
    <path d="M336.47,451.49A225.75,225.75,0,0,1,176.84,66.11,225.75,225.75,0,0,1,496.1,385.36,224.27,224.27,0,0,1,336.47,451.49Zm0-438.5c-117.31,0-212.75,95.44-212.75,212.75s95.44,212.75,212.75,212.75S549.22,343,549.22,225.73,453.78,13,336.47,13Z" transform="translate(-110.72 0.02)"/>
    <rect x="343.84" y="279.68" width="1" height="31.77" transform="translate(-168.42 506.03) rotate(-68.27)" fill="#020000"/>
    <rect x="328.47" y="266.07" width="31.75" height="1" transform="translate(-194.72 188.13) rotate(-27.37)" fill="#020000"/>
    <rect x="343.84" y="250.68" width="1" height="31.77" transform="translate(-141.48 487.77) rotate(-68.27)" fill="#020000"/>
  </g>
</symbol>


<symbol id="Heart" viewBox="0 0 451.5 451.5">
  <title>heart2</title>
  <path d="M-241.29,338.24" transform="translate(-0.02 0.03)"/>
  <path d="M-241.29,338.24" transform="translate(-0.02 0.03)" fill="none" stroke="#fff" stroke-miterlimit="10"/>
  <g>
    <path d="M225.72,451.47A225.75,225.75,0,0,1,65,67.24,224.27,224.27,0,0,1,224.15,0l0,6.5,0-6.5A225.75,225.75,0,0,1,386.53,384.2a224.27,224.27,0,0,1-159.15,67.26ZM225.79,13h-1.55A212.75,212.75,0,0,0,76.41,377.23a211.4,211.4,0,0,0,150.88,61.23c117.31-.84,212.06-97,211.22-214.27C437.67,107.41,342.39,13,225.79,13Z" transform="translate(-0.02 0.03)"/>
    <path d="M206.8,190.24" transform="translate(-0.02 0.03)" fill="#fff"/>
    <path d="M206.8,190.24" transform="translate(-0.02 0.03)" fill="none" stroke="#000" stroke-miterlimit="10"/>
    <path d="M223.51,17.5C109,18.28,16.86,111.75,17.67,226.24S112,432.9,226.46,432.08,433.11,337.79,432.29,223.3,338,16.65,223.51,17.5ZM214.4,325.3v1.34l-1.1-.68-.46.27v-.55c-13.4-8.36-109.85-71-109.85-142,0-76.23,111.4-76.23,111.4,0V208l.33-24.74c1-76.22,112.4-74.92,111.39,1.3-.92,70.91-98.22,132.47-111.71,140.67Z" transform="translate(-0.02 0.03)"/>
    <rect x="87.48" y="228.53" width="60" height="3"/>
    <rect x="143.36" y="218.5" width="28.28" height="3" transform="translate(-109.45 175.84) rotate(-45)"/>
    <rect x="176" y="208.38" width="3" height="63.25" transform="translate(-66.8 68.48) rotate(-18.43)"/>
    <line x1="187.48" y1="270.03" x2="227.48" y2="210.03" fill="none" stroke="#000" stroke-miterlimit="10" stroke-width="3"/>
    <rect x="236" y="205.86" width="3" height="28.28" transform="translate(-86.02 232.4) rotate(-45)"/>
    <rect x="247.45" y="227.03" width="79.06" height="3"/>
  </g>
</symbol>

<symbol id="Weight" viewBox="0 0 451.5 451.5">
  <title>weight</title>
  <g>
    <circle cx="225.09" cy="224.77" r="207.32"/>
    <path d="M246.75,462A225.75,225.75,0,0,1,87.12,76.62,225.75,225.75,0,0,1,406.38,395.88,224.28,224.28,0,0,1,246.75,462Zm0-438.5C129.44,23.5,34,118.94,34,236.25S129.44,449,246.75,449,459.5,353.56,459.5,236.25,364.06,23.5,246.75,23.5Z" transform="translate(-21 -10.5)"/>
    <rect x="135.16" y="167.5" width="16" height="105.96" fill="#fff"/>
    <rect x="148" y="208.13" width="155.61" height="30" fill="#fff"/>
    <rect x="301.45" y="167.5" width="16" height="105" fill="#fff"/>
    <rect x="317.01" y="178.5" width="12" height="81" fill="#fff"/>
    <rect x="328" y="194.5" width="10" height="55.65" fill="#fff"/>
    <rect x="124" y="178.5" width="16" height="85" fill="#fff"/>
    <rect x="115" y="195.5" width="10" height="55.65" fill="#fff"/>
  </g>
</symbol>


</svg>

