<svg id="Heart" xmlns="http://www.w3.org/2000/svg" viewBox="0 0 451.61 451.61">
  <title>heart3</title>
  <path d="M-241.3,338.2" transform="translate(0.01 0.01)"/>
  <path d="M-241.3,338.2" transform="translate(0.01 0.01)" fill="none" stroke="#fff" stroke-miterlimit="10"/>
  <g>
    <path d="M225.7,451.5A225.85,225.85,0,0,1,0,227.3,225.68,225.68,0,0,1,224.2,0V0A225.86,225.86,0,0,1,451.6,224.2,225.86,225.86,0,0,1,227.4,451.6,9.7,9.7,0,0,0,225.7,451.5ZM225.8,13h-1.5A212.7,212.7,0,0,0,76.4,377.2a211.3,211.3,0,0,0,150.9,61.2c117.3-.8,212.1-97,211.2-214.3C437.7,107.4,342.4,13,225.8,13Z" transform="translate(0.01 0.01)"/>
    <path d="M206.8,190.2" transform="translate(0.01 0.01)" fill="#fff"/>
    <path d="M206.8,190.2" transform="translate(0.01 0.01)" fill="none" stroke="#000" stroke-miterlimit="10"/>
    <path d="M223.5,17.5C109,18.3,16.9,111.8,17.7,226.2S112,432.9,226.5,432.1s206.6-94.3,205.8-208.8S338,16.7,223.5,17.5Zm-9.1,307.8v1.3l-1.1-.7-.5.3v-.5c-13.4-8.4-109.9-71-109.9-142,0-76.2,111.4-76.2,111.4,0V208l.3-24.7c1-76.2,112.4-74.9,111.4,1.3-.8,70.9-98.1,132.5-111.6,140.7Z" transform="translate(0.01 0.01)"/>
    <rect x="87.51" y="228.51" width="60" height="3"/>
    <rect x="143.38" y="218.46" width="28.3" height="3" transform="translate(-109.39 175.82) rotate(-45)"/>
    <rect x="176" y="208.41" width="3" height="63.2" transform="translate(-66.78 68.44) rotate(-18.43)"/>
    <line x1="187.51" y1="270.01" x2="227.51" y2="210.01" fill="none" stroke="#000" stroke-miterlimit="10" stroke-width="3"/>
    <rect x="236.03" y="205.89" width="3" height="28.3" transform="translate(-86.01 232.41) rotate(-45)"/>
    <rect x="247.51" y="227.01" width="79.1" height="3"/>
  </g>
</svg>
