<?xml version="1.0" encoding="utf-8"?>
<!-- Generator: Adobe Illustrator 16.0.0, SVG Export Plug-In . SVG Version: 6.00 Build 0)  -->
<!DOCTYPE svg PUBLIC "-//W3C//DTD SVG 1.1//EN" "http://www.w3.org/Graphics/SVG/1.1/DTD/svg11.dtd">
<svg version="1.1" xmlns="http://www.w3.org/2000/svg" xmlns:xlink="http://www.w3.org/1999/xlink" x="0px" y="0px" width="400px"
	 height="400px" viewBox="0 0 400 400" enable-background="new 0 0 400 400" xml:space="preserve">
<g id="Layer_1">
	<g>
		<g>
			<path d="M227.622,174.176c1.796-4.449,3.668-8.871,5.645-13.242c1.146-2.534,3.062-4.83,3.685-7.457
				c0.487-2.05,0.313-5.138-0.936-6.578c-8.34-9.609-17.62-18.271-28.404-25.13c-2.918-1.856-5.633-3.563-5.977-6.921
				c-1.458,1.843-2.553,4.346-4.458,5.453c-10.851,6.299-19.557,15.095-28.351,23.777c-5.207,5.14-5.04,7.638-1.489,13.951
				c2.336,4.155,3.899,8.759,5.639,13.229c1.319,3.387,2.112,6.994,3.609,10.29c1.663,3.663,8.386,5.834,11.074,3.355
				c2.337-2.155,3.936-5.246,5.358-8.169c0.396-0.813-1.027-2.486-1.567-3.785c-0.575-1.38-1.083-2.789-1.639-4.178
				c-0.268-0.669-0.41-1.503-0.896-1.951c-3.372-3.116-3.882-6.026-1.736-10.266c0.204-0.405,0.056-0.982,0.097-1.478
				c0.284-3.392,0.093-6.913,0.961-10.149c1.92-7.156,8.375-10.868,15.691-9.595c8.919,1.551,11.934,10.083,11.699,18.297
				c-0.036,1.303,0.24,2.714,0.75,3.915c0.949,2.231-0.528,7.188-1.871,9.028c-2.118,2.899-3.578,6.279-5.274,9.478
				c-0.109,0.208,0.077,0.644,0.232,0.913c1.384,2.401,2.432,5.123,4.272,7.105c3.109,3.35,9.548,1.888,11.235-2.309
				C225.968,179.277,226.621,176.657,227.622,174.176z"/>
			<path d="M200,1C89.543,1,0,90.543,0,201s89.543,200,200,200s200-89.543,200-200S310.457,1,200,1z M285.413,285.473
				c-1.514,2.729-4.882,4.729-7.809,6.305c-4.219,2.272-8.794,3.884-13.244,5.713c-1.876,0.771-3.818,1.38-5.957,2.145
				c1.351,2.17,3.389,4.1,1.059,6.953c-1.569,1.922-2.574,4.412-3.833,6.412c-1.506,0-3.016,0-4.524,0
				c-5.981-3-12.329-4.002-19.182-3.574c-9.964,0.621-20.013,0.85-29.807-1.938c-0.49-0.138-1.088-0.141-1.573-0.001
				c-10.004,2.863-20.27,2.542-30.448,1.909c-6.652-0.415-12.761,0.604-18.527,3.604c-1.508,0-3.016,0-4.524,0
				c-3.309-2-3.862-5.342-4.861-8.41c-0.436-1.34,0.962-3.242,1.648-5.268c-6.132-2.313-12.623-4.97-19.264-7.19
				c-7.536-2.519-12.162-9.857-10.318-17.397c0.261-1.067,1.38-2.266,2.407-2.73c2.132-0.962,4.425-1.785,6.729-2.107
				c7.667-1.069,15.352-2.081,23.062-2.735c4.583-0.389,9.252-0.375,13.834,0.018c6.237,0.535,10.716-1.372,13.933-7.004
				c5.066-8.868,5.016-17.794,1.371-26.979c-2.141-5.395-4.546-10.688-6.534-16.136c-1.02-2.799-1.229-5.884-2.083-8.755
				c-1.125-3.784-1.988-7.789-3.897-11.173c-8.465-15.012-12.296-31.339-14.487-48.197c-0.751-5.777,2.044-9.783,6.657-12.614
				c10.177-6.244,20.371-12.471,30.736-18.392c4.37-2.496,6.822-5.809,7.802-10.799c1.258-6.419,3.278-12.131,4.971-19.131
				c1.724,0,3.448,0,5.17,0c1.942,8,3.644,15.384,5.978,22.861c0.686,2.2,2.834,4.425,4.879,5.703
				c10.404,6.498,20.968,12.774,31.533,19.011c5.937,3.504,8.531,8.338,7.455,15.357c-2.344,15.289-5.536,30.291-13.208,43.957
				c-2.708,4.825-4.149,9.977-5.413,15.397c-1.691,7.266-4.668,14.275-7.539,21.213c-2.849,6.879-4.419,13.897-2.29,21.067
				c1.193,4.015,3.574,7.762,5.869,11.342c1.842,2.873,5.17,3.607,8.354,3.226c12.709-1.52,25.105,1.095,37.584,2.585
				C287.537,270.964,290.519,276.275,285.413,285.473z"/>
		</g>
		<circle fill="none" stroke="#FFFFFF" stroke-width="5" stroke-miterlimit="10" cx="200" cy="201" r="188.002"/>
	</g>
</g>
</svg>
