<svg id="Bottle" xmlns="http://www.w3.org/2000/svg" viewBox="0 0 451.5 451.5"><defs><style>.cls-1,.cls-2,.cls-4{fill:none;stroke:#000;stroke-miterlimit:10;}.cls-1,.cls-3,.cls-5{fill-rule:evenodd;}.cls-2{stroke-width:13px;}.cls-3{fill:#fff;}</style></defs><title>water2</title><path class="cls-1" d="M305.5,77.5" transform="translate(-255 -38.5)"/><circle class="cls-2" cx="225.75" cy="225.75" r="219.25"/><path class="cls-3" d="M479.8,222.74" transform="translate(-255 -38.5)"/><path class="cls-4" d="M479.8,222.74" transform="translate(-255 -38.5)"/><path class="cls-5" d="M480.07,57.95c-114.5,0-207.32,92.82-207.32,207.32s92.82,207.32,207.32,207.32,207.32-92.82,207.32-207.32S594.57,57.95,480.07,57.95Zm14.8,78.31a5.37,5.37,0,0,1,10,3.83,10.32,10.32,0,0,1-7.72,6.55S493.71,139.31,494.87,136.25Zm-6,29.45v21.36H475.74V165.7Zm-14.53-25.93a4,4,0,0,1,4.6,3.39,7.94,7.94,0,0,1-2.86,7.25s-5-3.7-5.34-6.2A4,4,0,0,1,474.37,139.77Zm8.88,52.17c21.63,0,39.16,22.58,39.16,50.42H444.09C444.09,214.52,461.62,191.94,483.25,191.94Zm-39.66,59.87h78.83v72.6H443.59ZM524.41,381.5a12,12,0,0,1-12,12H454.29a12,12,0,0,1-12-12V348.23a12,12,0,0,1,12-12h58.12a12,12,0,0,1,12,12Z" transform="translate(-255 -38.5)"/></svg>