<svg id="Weight" xmlns="http://www.w3.org/2000/svg" viewBox="0 0 451.5 451.5">
  <title>weight</title>
  <g>
    <circle cx="225.09" cy="224.77" r="207.32"/>
    <path d="M246.75,462A225.75,225.75,0,0,1,87.12,76.62,225.75,225.75,0,0,1,406.38,395.88,224.28,224.28,0,0,1,246.75,462Zm0-438.5C129.44,23.5,34,118.94,34,236.25S129.44,449,246.75,449,459.5,353.56,459.5,236.25,364.06,23.5,246.75,23.5Z" transform="translate(-21 -10.5)"/>
    <rect x="135.16" y="167.5" width="16" height="105.96" fill="#fff"/>
    <rect x="148" y="208.13" width="155.61" height="30" fill="#fff"/>
    <rect x="301.45" y="167.5" width="16" height="105" fill="#fff"/>
    <rect x="317.01" y="178.5" width="12" height="81" fill="#fff"/>
    <rect x="328" y="194.5" width="10" height="55.65" fill="#fff"/>
    <rect x="124" y="178.5" width="16" height="85" fill="#fff"/>
    <rect x="115" y="195.5" width="10" height="55.65" fill="#fff"/>
  </g>
</svg>
